<svg xmlns="http://www.w3.org/2000/svg" width="12" height="12" viewBox="0 0 12 12">
    <g fill="none" fill-rule="evenodd">
        <g fill="#000">
            <g>
                <path d="M10.656 0c.354 0 .667.135.938.406.27.271.406.584.406.938v9.312c0 .354-.135.667-.406.938-.271.27-.584.406-.938.406H1.344c-.354 0-.667-.135-.938-.406-.27-.271-.406-.584-.406-.938V1.344C0 .99.135.677.406.406.677.136.99 0 1.344 0h9.312zm-6 9.344l6-6-.937-.938L4.656 7.47 2.281 5.062 1.344 6l3.312 3.344z" transform="translate(-37 -253) translate(37 253)"/>
            </g>
        </g>
    </g>
</svg>
